<?xml version="1.0" standalone="no"?>
<!DOCTYPE svg PUBLIC "-//W3C//DTD SVG 20010904//EN"
 "http://www.w3.org/TR/2001/REC-SVG-20010904/DTD/svg10.dtd">
<svg version="1.0" xmlns="http://www.w3.org/2000/svg"
 width="686.000000pt" height="482.000000pt" viewBox="0 0 686.000000 482.000000"
 preserveAspectRatio="xMidYMid meet">
<metadata>
Created by potrace 1.16, written by Peter Selinger 2001-2019
</metadata>
<g transform="translate(0.000000,482.000000) scale(0.100000,-0.100000)"
fill="#1976D2" stroke="none">
<path d="M1685 4290 c-12 -20 -36 -124 -31 -137 4 -11 416 -13 2313 -13 l2308
0 99 68 c55 37 101 73 104 80 5 16 -4783 18 -4793 2z"/>
<path d="M2740 4082 c-17 -6 -11 -27 13 -46 27 -23 191 -172 267 -242 30 -28
78 -71 105 -95 28 -24 52 -46 55 -49 14 -14 242 -223 284 -261 27 -24 164
-149 304 -277 139 -128 271 -245 293 -259 52 -34 120 -46 187 -32 51 10 107
44 477 292 284 190 397 265 725 482 670 443 705 466 708 476 2 5 0 9 -5 9
-347 2 -3406 4 -3413 2z"/>
<path d="M2371 4043 c-6 -21 -16 -65 -23 -98 l-13 -60 -760 3 c-616 3 -763 1
-776 -10 -14 -12 -39 -97 -39 -134 0 -12 141 -14 995 -14 863 0 995 2 995 15
0 7 -6 18 -14 22 -7 4 -67 58 -132 119 -161 150 -210 194 -217 194 -4 0 -11
-17 -16 -37z"/>
<path d="M6293 3917 c-133 -89 -243 -168 -243 -175 0 -10 47 -12 217 -10 l217
3 8 30 c4 17 18 84 33 150 14 66 28 130 31 143 4 15 2 22 -7 22 -8 -1 -123
-74 -256 -163z"/>
<path d="M1168 3578 c-16 -14 -42 -124 -32 -139 7 -12 1931 -12 1938 0 3 4
-28 40 -68 80 l-74 71 -874 0 c-684 0 -878 -3 -890 -12z"/>
<path d="M5790 3583 c-34 -14 -190 -128 -190 -140 0 -10 80 -13 410 -13 l409
0 11 39 c6 22 11 57 13 78 l2 38 -320 2 c-176 1 -327 -1 -335 -4z"/>
<path d="M2222 3288 c-13 -17 -32 -86 -32 -120 l0 -28 600 0 c330 0 600 4 600
8 0 13 -20 35 -87 96 l-63 56 -504 0 c-391 0 -506 -3 -514 -12z"/>
<path d="M5267 3228 c-59 -40 -107 -76 -107 -80 0 -5 270 -8 599 -8 l599 0 11
33 c6 17 12 52 13 77 l3 45 -505 3 -505 2 -108 -72z"/>
<path d="M1387 2946 c-16 -12 -42 -131 -32 -146 7 -12 1954 -14 1971 -2 13 8
39 140 30 150 -13 12 -1954 11 -1969 -2z"/>
<path d="M5118 2948 c-18 -14 -43 -121 -34 -144 5 -12 92 -14 600 -14 414 0
597 3 601 11 4 6 13 38 21 71 11 46 12 64 3 74 -16 20 -1166 21 -1191 2z"/>
<path d="M2075 2658 c-13 -41 -25 -97 -25 -120 l0 -28 548 -2 c611 -1 650 -1
667 6 14 5 39 131 30 146 -10 16 -1215 13 -1220 -2z"/>
<path d="M5047 2656 c-13 -13 -43 -134 -35 -141 2 -2 272 -5 601 -8 l598 -5
13 22 c8 11 19 45 25 75 9 43 9 56 -1 63 -7 4 -277 8 -600 8 -495 0 -589 -2
-601 -14z"/>
<path d="M1069 2323 c-5 -15 -11 -50 -12 -77 l-2 -51 458 -3 c251 -1 457 -6
457 -10 0 -4 -9 -41 -19 -82 -10 -41 -16 -81 -13 -87 6 -18 4167 -19 4178 -2
10 17 73 323 67 332 -2 4 -1152 7 -2554 7 l-2549 0 -11 -27z"/>
<path d="M1914 1908 c-4 -6 -10 -25 -14 -42 l-6 -31 -789 -5 -789 -5 -15 -68
c-12 -59 -12 -70 0 -78 8 -5 349 -8 782 -6 762 2 767 2 767 -18 0 -11 -4 -35
-9 -53 -19 -66 -59 -62 605 -62 678 0 615 -8 629 77 4 24 11 46 17 49 13 9
1718 8 1726 0 3 -4 0 -29 -7 -56 -7 -27 -10 -54 -6 -60 10 -16 1199 -14 1213
3 5 6 15 41 21 77 6 36 22 110 35 165 13 55 21 106 18 113 -6 17 -4167 18
-4178 0z"/>
<path d="M1812 1438 c-7 -7 -12 -19 -12 -27 0 -9 -5 -33 -11 -53 l-10 -38
-493 0 c-383 0 -496 -3 -504 -12 -13 -16 -45 -138 -38 -145 8 -9 2211 -15
2221 -6 12 9 65 227 65 267 l0 26 -603 0 c-456 0 -606 -3 -615 -12z"/>
<path d="M4771 1431 c-15 -28 -56 -260 -47 -268 4 -5 272 -9 596 -10 443 -1
592 1 604 10 15 11 52 158 63 250 l5 37 -606 0 c-579 0 -606 -1 -615 -19z"/>
<path d="M1737 1093 c-3 -5 -10 -34 -16 -66 -6 -32 -13 -62 -16 -68 -4 -5
-116 -9 -270 -9 -299 0 -272 8 -295 -88 -8 -34 -9 -57 -3 -63 6 -6 342 -12
871 -15 957 -5 886 -10 897 64 3 20 15 75 25 122 11 47 20 96 20 108 l0 22
-604 0 c-333 0 -607 -3 -609 -7z"/>
<path d="M4692 1068 c-20 -63 -56 -267 -50 -274 13 -12 1186 -13 1203 0 15 11
65 224 65 279 l0 27 -604 0 -604 0 -10 -32z"/>
</g>
</svg>
